<?xml version="1.0" ?><svg id="Layer_1" style="enable-background:new 0 0 128 128;" version="1.1" viewBox="0 0 128 128" xml:space="preserve" xmlns="http://www.w3.org/2000/svg" xmlns:xlink="http://www.w3.org/1999/xlink"><style type="text/css">
	.st0{fill:#D5D5E5;}
	.st1{fill:#FFFFFF;}
	.st2{fill:none;stroke:#B2193A;stroke-width:3;stroke-miterlimit:10;}
</style><title/><g><g><polygon class="st0" points="106,0 106,99.7 77.7,128 22,128 22,0   "/><polygon class="st1" points="103,102.7 103,3 25,3 25,125 80.7,125   "/><polygon class="st0" points="77.7,128 77.7,99.7 106,99.7   "/></g><rect class="st0" height="8" width="54" x="37" y="14"/><rect class="st0" height="8" width="8" x="37" y="36"/><rect class="st0" height="6" width="38" x="53" y="37"/><rect class="st0" height="8" width="8" x="37" y="52"/><rect class="st0" height="6" width="38" x="53" y="53"/><rect class="st0" height="8" width="8" x="37" y="68"/><rect class="st0" height="6" width="38" x="53" y="69"/><polyline class="st2" points="37,38 41,42 49,34  "/></g></svg>