<?xml version="1.0" encoding="iso-8859-1"?>
<!-- Generator: Adobe Illustrator 21.1.0, SVG Export Plug-In . SVG Version: 6.00 Build 0)  -->
<svg version="1.1" id="Layer_1" xmlns="http://www.w3.org/2000/svg" xmlns:xlink="http://www.w3.org/1999/xlink" x="0px" y="0px"
	 viewBox="0 0 24 24" enable-background="new 0 0 24 24" xml:space="preserve">
<g>
	<path fill="#303C42" d="M23.5,12H22v-1.5c0-0.2763672-0.2236328-0.5-0.5-0.5H20V7.5C20,7.2236328,19.7763672,7,19.5,7H18V6h1.5
		C19.7763672,6,20,5.7763672,20,5.5v-2C20,3.2236328,19.7763672,3,19.5,3h-2C17.2236328,3,17,3.2236328,17,3.5V5h-1.5
		C15.2236328,5,15,5.2236328,15,5.5V7H9V5.5C9,5.2236328,8.7763672,5,8.5,5H7V3.5C7,3.2236328,6.7763672,3,6.5,3h-2
		C4.2236328,3,4,3.2236328,4,3.5v2C4,5.7763672,4.2236328,6,4.5,6H6v1H4.5C4.2236328,7,4,7.2236328,4,7.5V10H2.5
		C2.2236328,10,2,10.2236328,2,10.5V12H0.5C0.2236328,12,0,12.2236328,0,12.5v6C0,18.7763672,0.2236328,19,0.5,19h2
		C2.7763672,19,3,18.7763672,3,18.5V15h1v3.5C4,18.7763672,4.2236328,19,4.5,19H6v1.5C6,20.7763672,6.2236328,21,6.5,21h4
		c0.2763672,0,0.5-0.2236328,0.5-0.5v-2c0-0.2763672-0.2236328-0.5-0.5-0.5H7v-1h10v1h-3.5c-0.2763672,0-0.5,0.2236328-0.5,0.5v2
		c0,0.2763672,0.2236328,0.5,0.5,0.5h4c0.2763672,0,0.5-0.2236328,0.5-0.5V19h1.5c0.2763672,0,0.5-0.2236328,0.5-0.5V15h1v3.5
		c0,0.2763672,0.2236328,0.5,0.5,0.5h2c0.2763672,0,0.5-0.2236328,0.5-0.5v-6C24,12.2236328,23.7763672,12,23.5,12z"/>
	<rect x="7" y="19" fill="#9CCC65" width="3" height="1"/>
	<rect x="14" y="19" fill="#9CCC65" width="3" height="1"/>
	<path fill="#9CCC65" d="M23,18h-1v-3.5c0-0.2763672-0.2236328-0.5-0.5-0.5h-2c-0.2763672,0-0.5,0.2236328-0.5,0.5V18h-1v-1.5
		c0-0.2763672-0.2236328-0.5-0.5-0.5h-11C6.2236328,16,6,16.2236328,6,16.5V18H5v-3.5C5,14.2236328,4.7763672,14,4.5,14h-2
		C2.2236328,14,2,14.2236328,2,14.5V18H1v-5h1.5C2.7763672,13,3,12.7763672,3,12.5V11h1.5C4.7763672,11,5,10.7763672,5,10.5V8h1.5
		C6.7763672,8,7,7.7763672,7,7.5V6h1v1.5C8,7.7763672,8.2236328,8,8.5,8h7C15.7763672,8,16,7.7763672,16,7.5V6h1v1.5
		C17,7.7763672,17.2236328,8,17.5,8H19v2.5c0,0.2763672,0.2236328,0.5,0.5,0.5H21v1.5c0,0.2763672,0.2236328,0.5,0.5,0.5H23V18z"/>
	<path fill="#303C42" d="M8.5,9h-2C6.2236328,9,6,9.2236328,6,9.5v2C6,11.7763672,6.2236328,12,6.5,12h2
		C8.7763672,12,9,11.7763672,9,11.5v-2C9,9.2236328,8.7763672,9,8.5,9z"/>
	<rect x="18" y="4" fill="#9CCC65" width="1" height="1"/>
	<rect x="5" y="4" fill="#9CCC65" width="1" height="1"/>
	<path fill="#303C42" d="M17.5,9h-2C15.2236328,9,15,9.2236328,15,9.5v2c0,0.2763672,0.2236328,0.5,0.5,0.5h2
		c0.2763672,0,0.5-0.2236328,0.5-0.5v-2C18,9.2236328,17.7763672,9,17.5,9z"/>
	<linearGradient id="SVGID_1_" gradientUnits="userSpaceOnUse" x1="2.156338" y1="7.3424401" x2="24.4148121" y2="17.7217369">
		<stop  offset="0" style="stop-color:#FFFFFF;stop-opacity:0.2"/>
		<stop  offset="1" style="stop-color:#FFFFFF;stop-opacity:0"/>
	</linearGradient>
	<path fill="url(#SVGID_1_)" d="M23.5,12H22v-1.5c0-0.2763672-0.2236328-0.5-0.5-0.5H20V7.5C20,7.2236328,19.7763672,7,19.5,7H18V6
		h1.5C19.7763672,6,20,5.7763672,20,5.5v-2C20,3.2236328,19.7763672,3,19.5,3h-2C17.2236328,3,17,3.2236328,17,3.5V5h-1.5
		C15.2236328,5,15,5.2236328,15,5.5V7H9V5.5C9,5.2236328,8.7763672,5,8.5,5H7V3.5C7,3.2236328,6.7763672,3,6.5,3h-2
		C4.2236328,3,4,3.2236328,4,3.5v2C4,5.7763672,4.2236328,6,4.5,6H6v1H4.5C4.2236328,7,4,7.2236328,4,7.5V10H2.5
		C2.2236328,10,2,10.2236328,2,10.5V12H0.5C0.2236328,12,0,12.2236328,0,12.5v6C0,18.7763672,0.2236328,19,0.5,19h2
		C2.7763672,19,3,18.7763672,3,18.5V15h1v3.5C4,18.7763672,4.2236328,19,4.5,19H6v1.5C6,20.7763672,6.2236328,21,6.5,21h4
		c0.2763672,0,0.5-0.2236328,0.5-0.5v-2c0-0.2763672-0.2236328-0.5-0.5-0.5H7v-1h10v1h-3.5c-0.2763672,0-0.5,0.2236328-0.5,0.5v2
		c0,0.2763672,0.2236328,0.5,0.5,0.5h4c0.2763672,0,0.5-0.2236328,0.5-0.5V19h1.5c0.2763672,0,0.5-0.2236328,0.5-0.5V15h1v3.5
		c0,0.2763672,0.2236328,0.5,0.5,0.5h2c0.2763672,0,0.5-0.2236328,0.5-0.5v-6C24,12.2236328,23.7763672,12,23.5,12z"/>
</g>
<g>
</g>
<g>
</g>
<g>
</g>
<g>
</g>
<g>
</g>
<g>
</g>
<g>
</g>
<g>
</g>
<g>
</g>
<g>
</g>
<g>
</g>
<g>
</g>
<g>
</g>
<g>
</g>
<g>
</g>
</svg>
